<svg xmlns="http://www.w3.org/2000/svg" xmlns:xlink="http://www.w3.org/1999/xlink" xmlns:serif="http://www.serif.com/" viewBox="0 0 32 40" version="1.1" xml:space="preserve" style="" x="0px" y="0px" fill-rule="evenodd" clip-rule="evenodd" stroke-linejoin="round" stroke-miterlimit="2"><path d="M19.307,7.014c-0.089,0.154 -0.089,0.345 -0,0.5c0.089,0.154 0.254,0.25 0.433,0.25l2.309,-0c0.179,-0 0.344,-0.096 0.433,-0.25l2.135,-3.698c0.138,-0.239 0.056,-0.545 -0.183,-0.683l-1.732,-1c-0.239,-0.138 -0.545,-0.056 -0.683,0.183l-2.712,4.698Zm1.299,-0.25l1.155,-0l1.74,-3.015l-0.866,-0.5l-2.029,3.515Z"/><path d="M24.575,7.317c0.015,-0.141 -0.03,-0.282 -0.125,-0.388c-0.095,-0.105 -0.23,-0.165 -0.372,-0.165l-16.488,-0c-0.141,-0 -0.277,0.06 -0.371,0.165c-0.095,0.106 -0.141,0.247 -0.126,0.388l0.473,4.429c0.027,0.254 0.242,0.447 0.498,0.447l15.541,-0c0.256,-0 0.47,-0.193 0.497,-0.447l0.473,-4.429Zm-16.428,0.447l0.366,3.429l14.643,-0l0.366,-3.429l-15.375,-0Z"/><path d="M26,6.764l-20,-0c-0.276,-0 -0.5,0.224 -0.5,0.5c-0,0.276 0.224,0.5 0.5,0.5l20,-0c0.276,-0 0.5,-0.224 0.5,-0.5c-0,-0.276 -0.224,-0.5 -0.5,-0.5Z"/><path d="M23.777,11.743c0.014,-0.14 -0.032,-0.281 -0.127,-0.385c-0.095,-0.105 -0.229,-0.165 -0.371,-0.165l-14.89,-0c-0.141,-0 -0.276,0.06 -0.371,0.165c-0.095,0.104 -0.141,0.245 -0.126,0.385c-0,0 1.298,12.856 1.656,16.408c0.078,0.766 0.723,1.349 1.493,1.349c2.132,-0 7.455,-0 9.587,-0c0.77,0 1.415,-0.583 1.492,-1.349c0.359,-3.552 1.657,-16.408 1.657,-16.408Zm-1.051,0.45l-13.784,-0l1.601,15.857c0.026,0.256 0.241,0.45 0.498,0.45c2.132,-0 7.455,-0 9.587,0c0.256,0 0.471,-0.194 0.497,-0.45l1.601,-15.857Z"/><path d="M13.786,24.5c-0.893,0 -1.618,0.725 -1.618,1.618c-0,0.893 0.725,1.618 1.618,1.618c0.893,0 1.618,-0.725 1.618,-1.618c-0,-0.893 -0.725,-1.618 -1.618,-1.618Zm-0,1c0.341,0 0.618,0.277 0.618,0.618c-0,0.341 -0.277,0.618 -0.618,0.618c-0.341,0 -0.618,-0.277 -0.618,-0.618c-0,-0.341 0.277,-0.618 0.618,-0.618Z"/><path d="M18.139,24.343c-0.915,0 -1.657,0.743 -1.657,1.657c-0,0.914 0.742,1.657 1.657,1.657c0.914,-0 1.657,-0.743 1.657,-1.657c-0,-0.914 -0.743,-1.657 -1.657,-1.657Zm-0,1c0.362,0 0.657,0.294 0.657,0.657c-0,0.363 -0.295,0.657 -0.657,0.657c-0.363,-0 -0.657,-0.294 -0.657,-0.657c-0,-0.363 0.294,-0.657 0.657,-0.657Z"/><path d="M19.054,20.889c-0.81,0 -1.468,0.659 -1.468,1.47c0,0.811 0.658,1.469 1.468,1.469c0.81,0 1.468,-0.658 1.468,-1.469c-0,-0.811 -0.658,-1.47 -1.468,-1.47Zm0,1c0.259,0 0.468,0.211 0.468,0.47c-0,0.259 -0.209,0.469 -0.468,0.469c-0.258,0 -0.468,-0.21 -0.468,-0.469c0,-0.259 0.21,-0.47 0.468,-0.47Z"/><path d="M15.125,20.845c-0.823,-0 -1.491,0.668 -1.491,1.491c-0,0.824 0.668,1.492 1.491,1.492c0.824,0 1.492,-0.668 1.492,-1.492c0,-0.823 -0.668,-1.491 -1.492,-1.491Zm0,1c0.272,-0 0.492,0.22 0.492,0.491c0,0.272 -0.22,0.492 -0.492,0.492c-0.271,0 -0.491,-0.22 -0.491,-0.492c-0,-0.271 0.22,-0.491 0.491,-0.491Z"/><path d="M11.558,20.105c-0.284,-0.283 -0.284,-0.744 -0,-1.027c0.283,-0.284 0.744,-0.284 1.027,-0c0.195,0.195 0.512,0.195 0.707,-0c0.195,-0.195 0.195,-0.512 0,-0.707c-0.674,-0.674 -1.768,-0.674 -2.441,-0c-0.674,0.674 -0.674,1.768 -0,2.442c0.195,0.195 0.511,0.195 0.707,-0c0.195,-0.196 0.195,-0.512 -0,-0.708Z"/><path d="M17.416,18.632c0.104,-0.387 0.502,-0.618 0.89,-0.514c0.387,0.104 0.617,0.503 0.514,0.89c-0.072,0.267 0.087,0.541 0.353,0.612c0.267,0.072 0.541,-0.087 0.613,-0.353c0.246,-0.921 -0.301,-1.868 -1.221,-2.115c-0.921,-0.246 -1.868,0.301 -2.115,1.221c-0.071,0.267 0.087,0.541 0.354,0.612c0.266,0.072 0.54,-0.087 0.612,-0.353Z"/></svg>